ffmpeg version 3.2.12-1~deb9u1 Copyright (c) 2000-2018 the FFmpeg developers
  built with gcc 6.3.0 (Debian 6.3.0-18+deb9u1) 20170516
  configuration: --prefix=/usr --extra-version='1~deb9u1' --toolchain=hardened --libdir=/usr/lib/x86_64-linux-gnu --incdir=/usr/include/x86_64-linux-gnu --enable-gpl --disable-stripping --enable-avresample --enable-avisynth --enable-gnutls --enable-ladspa --enable-libass --enable-libbluray --enable-libbs2b --enable-libcaca --enable-libcdio --enable-libebur128 --enable-libflite --enable-libfontconfig --enable-libfreetype --enable-libfribidi --enable-libgme --enable-libgsm --enable-libmp3lame --enable-libopenjpeg --enable-libopenmpt --enable-libopus --enable-libpulse --enable-librubberband --enable-libshine --enable-libsnappy --enable-libsoxr --enable-libspeex --enable-libssh --enable-libtheora --enable-libtwolame --enable-libvorbis --enable-libvpx --enable-libwavpack --enable-libwebp --enable-libx265 --enable-libxvid --enable-libzmq --enable-libzvbi --enable-omx --enable-openal --enable-opengl --enable-sdl2 --enable-libdc1394 --enable-libiec61883 --enable-chromaprint --enable-frei0r --enable-libopencv --enable-libx264 --enable-shared
  libavutil      55. 34.101 / 55. 34.101
  libavcodec     57. 64.101 / 57. 64.101
  libavformat    57. 56.101 / 57. 56.101
  libavdevice    57.  1.100 / 57.  1.100
  libavfilter     6. 65.100 /  6. 65.100
  libavresample   3.  1.  0 /  3.  1.  0
  libswscale      4.  2.100 /  4.  2.100
  libswresample   2.  3.100 /  2.  3.100
  libpostproc    54.  1.100 / 54.  1.100
[mpegts @ 0x5601d6ad8f00] start time for stream 0 is not set in estimate_timings_from_pts
Input #0, mpegts, from '../videos/19_01_21-20_58_21-amberx18.ts':
  Duration: 00:00:30.00, start: 13.527000, bitrate: 5181 kb/s
  Program 1 
    Stream #0:0[0x102]: Data: timed_id3 (ID3  / 0x20334449)
    Stream #0:1[0x100]: Video: h264 (High) ([27][0][0][0] / 0x001B), yuv420p(progressive), 1920x1080 [SAR 1:1 DAR 16:9], 30 fps, 30 tbr, 90k tbn, 60 tbc
    Stream #0:2[0x101]: Audio: aac (LC) ([15][0][0][0] / 0x000F), 48000 Hz, stereo, fltp, 132 kb/s
[libx264 @ 0x5601d6afc3a0] using SAR=1/1
[libx264 @ 0x5601d6afc3a0] using cpu capabilities: MMX2 SSE2Fast SSSE3 SSE4.2
[libx264 @ 0x5601d6afc3a0] profile High, level 4.0
[libx264 @ 0x5601d6afc3a0] 264 - core 148 r2748 97eaef2 - H.264/MPEG-4 AVC codec - Copyleft 2003-2016 - http://www.videolan.org/x264.html - options: cabac=1 ref=3 deblock=1:0:0 analyse=0x3:0x113 me=hex subme=7 psy=1 psy_rd=1.00:0.00 mixed_ref=1 me_range=16 chroma_me=1 trellis=1 8x8dct=1 cqm=0 deadzone=21,11 fast_pskip=1 chroma_qp_offset=-2 threads=2 lookahead_threads=1 sliced_threads=0 nr=0 decimate=1 interlaced=0 bluray_compat=0 constrained_intra=0 bframes=3 b_pyramid=2 b_adapt=1 b_bias=0 direct=1 weightb=1 open_gop=0 weightp=2 keyint=250 keyint_min=25 scenecut=40 intra_refresh=0 rc_lookahead=40 rc=crf mbtree=1 crf=23.0 qcomp=0.60 qpmin=0 qpmax=69 qpstep=4 ip_ratio=1.40 aq=1:1.00
Output #0, mp4, to '../videos/19_01_21-20_58_21-amberx18.mp4':
  Metadata:
    encoder         : Lavf57.56.101
    Stream #0:0: Video: h264 (libx264) ([33][0][0][0] / 0x0021), yuv420p, 1920x1080 [SAR 1:1 DAR 16:9], q=-1--1, 30 fps, 15360 tbn, 30 tbc
    Metadata:
      encoder         : Lavc57.64.101 libx264
    Side data:
      cpb: bitrate max/min/avg: 0/0/0 buffer size: 0 vbv_delay: -1
    Stream #0:1: Audio: aac (LC) ([64][0][0][0] / 0x0040), 48000 Hz, stereo, fltp, 128 kb/s
    Metadata:
      encoder         : Lavc57.64.101 aac
Stream mapping:
  Stream #0:1 -> #0:0 (h264 (native) -> h264 (libx264))
  Stream #0:2 -> #0:1 (aac (native) -> aac (native))
Press [q] to stop, [?] for help
frame=   47 fps= 46 q=29.0 size=      85kB time=00:00:01.68 bitrate= 412.1kbits/s speed=1.65x    frame=   51 fps= 32 q=29.0 size=     127kB time=00:00:01.83 bitrate= 565.7kbits/s speed=1.14x    frame=   55 fps= 26 q=29.0 size=     178kB time=00:00:01.94 bitrate= 752.5kbits/s speed=0.918x    frame=   59 fps= 22 q=29.0 size=     225kB time=00:00:02.09 bitrate= 883.6kbits/s speed=0.777x    frame=   63 fps= 19 q=29.0 size=     298kB time=00:00:02.21 bitrate=1101.1kbits/s speed=0.669x    frame=   68 fps= 18 q=29.0 size=     374kB time=00:00:02.41 bitrate=1270.9kbits/s speed=0.62x    frame=   76 fps= 16 q=29.0 size=     479kB time=00:00:02.64 bitrate=1482.3kbits/s speed=0.559x    frame=   80 fps= 15 q=29.0 size=     525kB time=00:00:02.79 bitrate=1540.0kbits/s speed=0.527x    frame=   84 fps= 14 q=29.0 size=     589kB time=00:00:02.92 bitrate=1649.5kbits/s speed=0.502x    frame=   89 fps= 14 q=29.0 size=     633kB time=00:00:03.11 bitrate=1664.5kbits/s speed=0.488x    frame=   93 fps= 13 q=29.0 size=     707kB time=00:00:03.22 bitrate=1798.4kbits/s speed=0.463x    frame=   97 fps= 13 q=29.0 size=     755kB time=00:00:03.37 bitrate=1835.1kbits/s speed=0.45x    frame=  101 fps= 13 q=29.0 size=     804kB time=00:00:03.49 bitrate=1881.6kbits/s speed=0.436x    frame=  105 fps= 12 q=29.0 size=     846kB time=00:00:03.62 bitrate=1911.8kbits/s speed=0.424x    frame=  109 fps= 12 q=29.0 size=     909kB time=00:00:03.73 bitrate=1994.4kbits/s speed=0.412x    frame=  114 fps= 12 q=29.0 size=     986kB time=00:00:03.92 bitrate=2058.7kbits/s speed=0.406x    frame=  118 fps= 11 q=29.0 size=    1029kB time=00:00:04.07 bitrate=2069.6kbits/s speed=0.395x    frame=  122 fps= 11 q=29.0 size=    1093kB time=00:00:04.20 bitrate=2131.1kbits/s speed=0.382x    frame=  126 fps= 11 q=29.0 size=    1148kB time=00:00:04.33 bitrate=2171.5kbits/s speed=0.375x    frame=  132 fps= 11 q=29.0 size=    1208kB time=00:00:04.50 bitrate=2199.2kbits/s speed=0.373x    frame=  136 fps= 11 q=29.0 size=    1245kB time=00:00:04.65 bitrate=2192.7kbits/s speed=0.368x    frame=  139 fps= 11 q=29.0 size=    1310kB time=00:00:04.77 bitrate=2246.4kbits/s speed=0.363x    frame=  145 fps= 10 q=29.0 size=    1395kB time=00:00:04.94 bitrate=2309.3kbits/s speed=0.358x    frame=  151 fps= 10 q=29.0 size=    1485kB time=00:00:05.14 bitrate=2365.9kbits/s speed=0.349x    frame=  155 fps= 10 q=29.0 size=    1526kB time=00:00:05.29 bitrate=2362.7kbits/s speed=0.348x    frame=  160 fps= 10 q=29.0 size=    1585kB time=00:00:05.48 bitrate=2368.2kbits/s speed=0.348x    frame=  165 fps= 10 q=29.0 size=    1637kB time=00:00:05.65 bitrate=2372.0kbits/s speed=0.348x    frame=  168 fps= 10 q=29.0 size=    1699kB time=00:00:05.73 bitrate=2425.4kbits/s speed=0.341x    frame=  174 fps=9.9 q=29.0 size=    1781kB time=00:00:05.93 bitrate=2459.4kbits/s speed=0.337x    frame=  180 fps=9.9 q=29.0 size=    1834kB time=00:00:06.10 bitrate=2462.2kbits/s speed=0.336x    frame=  182 fps=9.7 q=29.0 size=    1879kB time=00:00:06.18 bitrate=2488.4kbits/s speed=0.33x    frame=  187 fps=9.7 q=29.0 size=    1946kB time=00:00:06.35 bitrate=2508.1kbits/s speed=0.33x    frame=  191 fps=9.7 q=29.0 size=    1988kB time=00:00:06.50 bitrate=2502.3kbits/s speed=0.329x    frame=  197 fps=9.7 q=29.0 size=    2080kB time=00:00:06.67 bitrate=2551.4kbits/s speed=0.329x    frame=  199 fps=9.5 q=29.0 size=    2098kB time=00:00:06.76 bitrate=2541.6kbits/s speed=0.325x    frame=  205 fps=9.5 q=29.0 size=    2180kB time=00:00:06.93 bitrate=2575.9kbits/s speed=0.322x    frame=  210 fps=9.5 q=29.0 size=    2229kB time=00:00:07.12 bitrate=2562.1kbits/s speed=0.323x    frame=  212 fps=9.4 q=29.0 size=    2280kB time=00:00:07.21 bitrate=2590.4kbits/s speed=0.318x    frame=  218 fps=9.4 q=29.0 size=    2350kB time=00:00:07.38 bitrate=2608.2kbits/s speed=0.318x    frame=  222 fps=9.3 q=29.0 size=    2390kB time=00:00:07.53 bitrate=2599.9kbits/s speed=0.317x    frame=  226 fps=9.3 q=29.0 size=    2456kB time=00:00:07.63 bitrate=2633.9kbits/s speed=0.314x    frame=  231 fps=9.3 q=29.0 size=    2493kB time=00:00:07.85 bitrate=2601.2kbits/s speed=0.316x    frame=  235 fps=9.3 q=29.0 size=    2529kB time=00:00:07.97 bitrate=2596.3kbits/s speed=0.314x    frame=  241 fps=9.3 q=29.0 size=    2621kB time=00:00:08.14 bitrate=2634.8kbits/s speed=0.313x    frame=  243 fps=9.2 q=29.0 size=    2646kB time=00:00:08.23 bitrate=2632.6kbits/s speed=0.31x    frame=  247 fps=9.1 q=29.0 size=    2716kB time=00:00:08.36 bitrate=2660.4kbits/s speed=0.308x    frame=  251 fps=9.0 q=29.0 size=    2795kB time=00:00:08.49 bitrate=2696.7kbits/s speed=0.305x    frame=  255 fps=8.9 q=29.0 size=    2866kB time=00:00:08.61 bitrate=2724.2kbits/s speed=0.302x    frame=  260 fps=8.9 q=29.0 size=    2949kB time=00:00:08.78 bitrate=2748.4kbits/s speed=0.302x    frame=  264 fps=8.9 q=29.0 size=    3011kB time=00:00:08.91 bitrate=2765.9kbits/s speed= 0.3x    frame=  268 fps=8.8 q=29.0 size=    3078kB time=00:00:09.04 bitrate=2787.6kbits/s speed=0.298x    frame=  272 fps=8.8 q=29.0 size=    3161kB time=00:00:09.17 bitrate=2822.7kbits/s speed=0.296x    frame=  276 fps=8.7 q=29.0 size=    3203kB time=00:00:09.30 bitrate=2820.8kbits/s speed=0.294x    frame=  280 fps=8.7 q=29.0 size=    3263kB time=00:00:09.45 bitrate=2828.2kbits/s speed=0.294x    frame=  285 fps=8.7 q=29.0 size=    3320kB time=00:00:09.62 bitrate=2826.8kbits/s speed=0.294x    frame=  287 fps=8.6 q=29.0 size=    3371kB time=00:00:09.70 bitrate=2844.9kbits/s speed=0.292x    frame=  291 fps=8.6 q=29.0 size=    3416kB time=00:00:09.83 bitrate=2845.6kbits/s speed=0.292x    frame=  297 fps=8.7 q=29.0 size=    3563kB time=00:00:10.02 bitrate=2911.2kbits/s speed=0.292x    frame=  303 fps=8.7 q=29.0 size=    3655kB time=00:00:10.19 bitrate=2936.5kbits/s speed=0.292x    frame=  308 fps=8.7 q=29.0 size=    3709kB time=00:00:10.38 bitrate=2924.8kbits/s speed=0.292x    frame=  314 fps=8.7 q=29.0 size=    3809kB time=00:00:10.58 bitrate=2949.3kbits/s speed=0.292x    frame=  318 fps=8.6 q=29.0 size=    3843kB time=00:00:10.70 bitrate=2939.6kbits/s speed=0.291x    frame=  324 fps=8.7 q=29.0 size=    3885kB time=00:00:10.90 bitrate=2919.8kbits/s speed=0.292x    frame=  328 fps=8.6 q=29.0 size=    3920kB time=00:00:11.05 bitrate=2905.6kbits/s speed=0.291x    frame=  331 fps=8.6 q=29.0 size=    3972kB time=00:00:11.17 bitrate=2911.0kbits/s speed=0.291x    frame=  337 fps=8.6 q=29.0 size=    4020kB time=00:00:11.34 bitrate=2902.0kbits/s speed=0.291x    frame=  341 fps=8.6 q=29.0 size=    4069kB time=00:00:11.47 bitrate=2904.5kbits/s speed=0.29x    frame=  345 fps=8.6 q=29.0 size=    4128kB time=00:00:11.60 bitrate=2914.1kbits/s speed=0.289x    frame=  349 fps=8.6 q=29.0 size=    4193kB time=00:00:11.73 bitrate=2927.3kbits/s speed=0.288x    frame=  351 fps=8.5 q=29.0 size=    4243kB time=00:00:11.81 bitrate=2940.7kbits/s speed=0.286x    frame=  355 fps=8.5 q=29.0 size=    4308kB time=00:00:11.92 bitrate=2959.4kbits/s speed=0.286x    frame=  358 fps=8.5 q=29.0 size=    4363kB time=00:00:12.05 bitrate=2965.4kbits/s speed=0.285x    frame=  362 fps=8.4 q=29.0 size=    4438kB time=00:00:12.18 bitrate=2984.6kbits/s speed=0.284x    frame=  366 fps=8.4 q=29.0 size=    4500kB time=00:00:12.30 bitrate=2994.7kbits/s speed=0.283x    frame=  370 fps=8.4 q=29.0 size=    4548kB time=00:00:12.45 bitrate=2990.5kbits/s speed=0.283x    frame=  376 fps=8.4 q=29.0 size=    4602kB time=00:00:12.62 bitrate=2985.3kbits/s speed=0.283x    frame=  379 fps=8.4 q=29.0 size=    4668kB time=00:00:12.77 bitrate=2992.4kbits/s speed=0.283x    frame=  385 fps=8.4 q=29.0 size=    4738kB time=00:00:12.94 bitrate=2997.4kbits/s speed=0.283x    frame=  389 fps=8.4 q=29.0 size=    4805kB time=00:00:13.09 bitrate=3005.3kbits/s speed=0.282x    frame=  395 fps=8.4 q=29.0 size=    4859kB time=00:00:13.29 bitrate=2995.0kbits/s speed=0.283x    frame=  399 fps=8.4 q=29.0 size=    4912kB time=00:00:13.41 bitrate=2998.9kbits/s speed=0.282x    frame=  404 fps=8.4 q=29.0 size=    4971kB time=00:00:13.61 bitrate=2992.2kbits/s speed=0.282x    frame=  408 fps=8.4 q=29.0 size=    5047kB time=00:00:13.71 bitrate=3013.9kbits/s speed=0.281x    frame=  414 fps=8.4 q=29.0 size=    5123kB time=00:00:13.90 bitrate=3017.3kbits/s speed=0.281x    frame=  420 fps=8.4 q=29.0 size=    5221kB time=00:00:14.10 bitrate=3032.8kbits/s speed=0.281x    frame=  424 fps=8.3 q=29.0 size=    5270kB time=00:00:14.25 bitrate=3029.4kbits/s speed=0.281x    frame=  429 fps=8.3 q=29.0 size=    5325kB time=00:00:14.44 bitrate=3020.3kbits/s speed=0.281x    frame=  435 fps=8.3 q=29.0 size=    5421kB time=00:00:14.63 bitrate=3034.3kbits/s speed=0.28x    frame=  441 fps=8.4 q=29.0 size=    5475kB time=00:00:14.80 bitrate=3029.4kbits/s speed=0.28x    frame=  445 fps=8.3 q=29.0 size=    5529kB time=00:00:14.95 bitrate=3028.5kbits/s speed=0.28x    frame=  450 fps=8.3 q=29.0 size=    5602kB time=00:00:15.12 bitrate=3033.9kbits/s speed=0.28x    frame=  456 fps=8.3 q=29.0 size=    5634kB time=00:00:15.31 bitrate=3013.4kbits/s speed=0.28x    frame=  462 fps=8.3 q=29.0 size=    5703kB time=00:00:15.50 bitrate=3012.5kbits/s speed=0.28x    frame=  466 fps=8.3 q=29.0 size=    5772kB time=00:00:15.63 bitrate=3023.6kbits/s speed=0.279x    frame=  470 fps=8.3 q=29.0 size=    5814kB time=00:00:15.78 bitrate=3017.1kbits/s speed=0.279x    frame=  475 fps=8.3 q=29.0 size=    5862kB time=00:00:15.97 bitrate=3005.5kbits/s speed=0.28x    frame=  479 fps=8.3 q=29.0 size=    5904kB time=00:00:16.10 bitrate=3002.7kbits/s speed=0.279x    frame=  483 fps=8.3 q=29.0 size=    5970kB time=00:00:16.21 bitrate=3016.3kbits/s speed=0.278x    frame=  485 fps=8.3 q=29.0 size=    6003kB time=00:00:16.29 bitrate=3017.4kbits/s speed=0.277x    frame=  489 fps=8.2 q=29.0 size=    6048kB time=00:00:16.42 bitrate=3016.3kbits/s speed=0.277x    frame=  495 fps=8.3 q=29.0 size=    6102kB time=00:00:16.59 bitrate=3012.0kbits/s speed=0.278x    frame=  498 fps=8.3 q=29.0 size=    6160kB time=00:00:16.72 bitrate=3017.3kbits/s speed=0.277x    frame=  502 fps=8.2 q=29.0 size=    6203kB time=00:00:16.87 bitrate=3011.5kbits/s speed=0.277x    frame=  508 fps=8.3 q=29.0 size=    6255kB time=00:00:17.04 bitrate=3006.0kbits/s speed=0.278x    frame=  512 fps=8.3 q=29.0 size=    6316kB time=00:00:17.17 bitrate=3012.9kbits/s speed=0.277x    frame=  516 fps=8.3 q=29.0 size=    6343kB time=00:00:17.32 bitrate=2999.5kbits/s speed=0.277x    frame=  521 fps=8.3 q=29.0 size=    6447kB time=00:00:17.51 bitrate=3015.3kbits/s speed=0.278x    frame=  525 fps=8.3 q=29.0 size=    6513kB time=00:00:17.64 bitrate=3024.2kbits/s speed=0.277x    frame=  531 fps=8.3 q=29.0 size=    6626kB time=00:00:17.81 bitrate=3047.4kbits/s speed=0.277x    frame=  535 fps=8.3 q=29.0 size=    6674kB time=00:00:17.96 bitrate=3043.9kbits/s speed=0.277x    frame=  541 fps=8.3 q=29.0 size=    6729kB time=00:00:18.15 bitrate=3036.5kbits/s speed=0.278x    frame=  546 fps=8.3 q=29.0 size=    6814kB time=00:00:18.32 bitrate=3046.0kbits/s speed=0.278x    frame=  550 fps=8.3 q=29.0 size=    6848kB time=00:00:18.47 bitrate=3036.7kbits/s speed=0.278x    frame=  554 fps=8.3 q=29.0 size=    6913kB time=00:00:18.60 bitrate=3044.3kbits/s speed=0.277x    frame=  560 fps=8.3 q=29.0 size=    6951kB time=00:00:18.79 bitrate=3029.6kbits/s speed=0.278x    frame=  566 fps=8.3 q=29.0 size=    7009kB time=00:00:18.98 bitrate=3024.0kbits/s speed=0.278x    frame=  571 fps=8.3 q=29.0 size=    7075kB time=00:00:19.15 bitrate=3025.6kbits/s speed=0.278x    frame=  577 fps=8.3 q=29.0 size=    7108kB time=00:00:19.34 bitrate=3009.2kbits/s speed=0.279x    frame=  583 fps=8.3 q=29.0 size=    7175kB time=00:00:19.54 bitrate=3007.7kbits/s speed=0.279x    frame=  587 fps=8.3 q=29.0 size=    7236kB time=00:00:19.66 bitrate=3013.6kbits/s speed=0.278x    frame=  594 fps=8.3 q=29.0 size=    7282kB time=00:00:19.92 bitrate=2993.9kbits/s speed=0.279x    frame=  598 fps=8.3 q=29.0 size=    7328kB time=00:00:20.07 bitrate=2990.4kbits/s speed=0.279x    frame=  602 fps=8.3 q=29.0 size=    7384kB time=00:00:20.20 bitrate=2994.3kbits/s speed=0.279x    frame=  608 fps=8.3 q=29.0 size=    7423kB time=00:00:20.39 bitrate=2981.5kbits/s speed=0.279x    frame=  614 fps=8.4 q=29.0 size=    7504kB time=00:00:20.56 bitrate=2989.3kbits/s speed=0.28x    frame=  617 fps=8.3 q=29.0 size=    7520kB time=00:00:20.71 bitrate=2974.0kbits/s speed=0.28x    frame=  623 fps=8.4 q=29.0 size=    7568kB time=00:00:20.88 bitrate=2968.3kbits/s speed=0.28x    frame=  629 fps=8.4 q=29.0 size=    7606kB time=00:00:21.07 bitrate=2956.3kbits/s speed=0.28x    frame=  631 fps=8.3 q=29.0 size=    7657kB time=00:00:21.16 bitrate=2963.8kbits/s speed=0.28x    frame=  639 fps=8.4 q=29.0 size=    7730kB time=00:00:21.39 bitrate=2959.5kbits/s speed=0.281x    frame=  644 fps=8.4 q=29.0 size=    7770kB time=00:00:21.58 bitrate=2948.1kbits/s speed=0.281x    frame=  648 fps=8.4 q=29.0 size=    7826kB time=00:00:21.71 bitrate=2952.1kbits/s speed=0.281x    frame=  654 fps=8.4 q=29.0 size=    7863kB time=00:00:21.90 bitrate=2940.1kbits/s speed=0.281x    frame=  660 fps=8.4 q=29.0 size=    7954kB time=00:00:22.10 bitrate=2948.2kbits/s speed=0.281x    frame=  667 fps=8.4 q=29.0 size=    8007kB time=00:00:22.35 bitrate=2933.8kbits/s speed=0.282x    frame=  671 fps=8.4 q=29.0 size=    8036kB time=00:00:22.50 bitrate=2924.8kbits/s speed=0.282x    frame=  675 fps=8.4 q=29.0 size=    8097kB time=00:00:22.61 bitrate=2933.2kbits/s speed=0.281x    frame=  681 fps=8.4 q=29.0 size=    8127kB time=00:00:22.80 bitrate=2919.3kbits/s speed=0.282x    frame=  685 fps=8.4 q=29.0 size=    8158kB time=00:00:22.95 bitrate=2911.4kbits/s speed=0.282x    frame=  690 fps=8.4 q=29.0 size=    8239kB time=00:00:23.12 bitrate=2918.6kbits/s speed=0.282x    frame=  692 fps=8.4 q=29.0 size=    8249kB time=00:00:23.21 bitrate=2911.4kbits/s speed=0.281x    frame=  698 fps=8.4 q=29.0 size=    8284kB time=00:00:23.40 bitrate=2899.9kbits/s speed=0.282x    frame=  704 fps=8.4 q=29.0 size=    8354kB time=00:00:23.57 bitrate=2903.1kbits/s speed=0.282x    frame=  708 fps=8.4 q=29.0 size=    8410kB time=00:00:23.70 bitrate=2906.7kbits/s speed=0.281x    frame=  713 fps=8.4 q=29.0 size=    8443kB time=00:00:23.91 bitrate=2892.1kbits/s speed=0.282x    frame=  719 fps=8.4 q=29.0 size=    8530kB time=00:00:24.08 bitrate=2901.3kbits/s speed=0.283x    frame=  721 fps=8.4 q=29.0 size=    8541kB time=00:00:24.17 bitrate=2894.7kbits/s speed=0.282x    frame=  727 fps=8.4 q=29.0 size=    8589kB time=00:00:24.36 bitrate=2888.0kbits/s speed=0.282x    frame=  733 fps=8.4 q=29.0 size=    8624kB time=00:00:24.55 bitrate=2877.3kbits/s speed=0.283x    frame=  738 fps=8.4 q=29.0 size=    8689kB time=00:00:24.72 bitrate=2878.9kbits/s speed=0.283x    frame=  744 fps=8.5 q=29.0 size=    8734kB time=00:00:24.91 bitrate=2871.3kbits/s speed=0.283x    frame=  748 fps=8.4 q=29.0 size=    8771kB time=00:00:25.06 bitrate=2866.5kbits/s speed=0.283x    frame=  752 fps=8.4 q=29.0 size=    8828kB time=00:00:25.19 bitrate=2870.6kbits/s speed=0.283x    frame=  758 fps=8.5 q=29.0 size=    8866kB time=00:00:25.38 bitrate=2861.1kbits/s speed=0.283x    frame=  763 fps=8.5 q=29.0 size=    8926kB time=00:00:25.57 bitrate=2858.6kbits/s speed=0.284x    frame=  769 fps=8.5 q=26.0 size=    8956kB time=00:00:25.77 bitrate=2846.9kbits/s speed=0.284x    frame=  775 fps=8.5 q=29.0 size=    9132kB time=00:00:25.96 bitrate=2881.5kbits/s speed=0.284x    frame=  779 fps=8.5 q=29.0 size=    9196kB time=00:00:26.09 bitrate=2887.4kbits/s speed=0.284x    frame=  786 fps=8.5 q=29.0 size=    9232kB time=00:00:26.34 bitrate=2870.5kbits/s speed=0.285x    